<svg xmlns="http://www.w3.org/2000/svg" width="146" height="37" viewBox="0 0 146 37" fill="none"><path fill-rule="evenodd" clip-rule="evenodd" d="M43.4002 19.4974V19.5138L35.3198 22.7328C35.5034 21.1296 36.2706 19.65 37.4751 18.5763C38.6796 17.5025 40.2372 16.9096 41.8509 16.9107C42.2755 16.9099 42.6991 16.9511 43.1155 17.0338C43.3958 17.0748 43.6547 17.2076 43.8515 17.4113C44.0483 17.6151 44.1721 17.8783 44.2034 18.1599C44.2347 18.4415 44.1717 18.7255 44.0244 18.9675C43.8771 19.2095 43.6537 19.3958 43.3892 19.4974H43.4002ZM37.8135 28.3167C38.7663 29.0428 39.861 29.5605 41.0268 29.8363C42.1925 30.112 43.4032 30.1397 44.5804 29.9175C45.7575 29.6953 46.8748 29.2281 47.8598 28.5464C48.8448 27.8646 49.6755 26.9834 50.298 25.96C50.4349 25.7355 50.5334 25.4399 50.6539 25.2647C50.7417 25.1366 50.8612 25.0335 51.0008 24.9654C51.1403 24.8973 51.2952 24.8666 51.4502 24.8763C51.6052 24.8859 51.755 24.9356 51.8851 25.0205C52.0151 25.1054 52.1209 25.2225 52.1922 25.3605C52.2859 25.635 52.3636 25.9146 52.4248 26.1981C52.6621 27.3684 52.6183 28.5783 52.2971 29.7284C51.9759 30.8785 51.3865 31.936 50.5772 32.814C48.3216 35.1919 45.2622 36.6458 41.9941 36.8932C38.7259 37.1406 35.4825 36.1637 32.8946 34.1525L32.8563 34.1197L32.7797 34.0595L32.7113 34.0047L32.6456 33.9527L32.5717 33.8897L32.5087 33.8405L32.4321 33.7748L32.3773 33.7255L32.2979 33.6571L32.2459 33.6106L32.1638 33.5394L32.1173 33.4956L32.0324 33.4189L31.9914 33.3806L31.9038 33.2985L31.8737 33.2684C31.6766 33.0795 31.485 32.8852 31.3016 32.6881C31.266 32.6525 31.2331 32.6142 31.2003 32.5786L31.1811 32.5595L31.0826 32.4472V32.4335C28.9357 29.9803 27.7722 26.8197 27.816 23.56C27.8599 20.3003 29.108 17.1721 31.3201 14.7775C33.5322 12.383 36.5519 10.8913 39.7979 10.5898C43.0439 10.2882 46.2867 11.1981 48.902 13.1442L48.8829 13.1689C49.6485 13.6981 50.2847 14.3935 50.744 15.203C51.2033 16.0125 51.4738 16.9154 51.5354 17.8441C51.597 18.7728 51.448 19.7034 51.0996 20.5665C50.7512 21.4296 50.2124 22.2029 49.5234 22.8286C48.7022 23.5813 48.2889 23.7483 47.3089 24.1397L37.4987 28.054L37.8381 28.3277L37.8135 28.3167ZM62.1941 32.6607V21.876C62.1591 21.4034 62.2111 20.9284 62.3473 20.4745C62.5923 19.6215 63.1156 18.875 63.8339 18.3537C64.5521 17.8324 65.4241 17.5663 66.3111 17.5978C67.198 17.6292 68.0489 17.9565 68.7284 18.5274C69.4079 19.0983 69.877 19.88 70.0609 20.7483C70.127 21.0251 70.1546 21.3097 70.143 21.5941V31.6671C70.1449 31.9625 70.1706 32.2572 70.2196 32.5485C70.2196 32.5814 70.2333 32.6142 70.2388 32.6471V32.6744C70.2388 32.7045 70.2388 32.7346 70.2579 32.7647V32.7976C70.2579 32.825 70.2716 32.8551 70.2799 32.8824V32.9208C70.2799 32.9481 70.2935 32.9755 70.3018 33.0029V33.0412C70.3018 33.0686 70.3154 33.096 70.3237 33.1261V33.1589C70.3237 33.1863 70.3401 33.2164 70.351 33.2438V33.2794C70.351 33.3067 70.3674 33.3314 70.3784 33.3587L70.3921 33.3971C70.3921 33.4244 70.4112 33.4518 70.4194 33.4792V33.5065C70.4194 33.5366 70.4413 33.564 70.455 33.5941V33.616C70.4687 33.6489 70.4797 33.679 70.4934 33.7091V33.7228C70.5098 33.7556 70.5235 33.7885 70.5372 33.8213C70.6021 33.9654 70.6743 34.1061 70.7534 34.2429L70.8027 34.325L70.8164 34.3496L70.8602 34.4208L70.8793 34.4536C70.8964 34.4763 70.9119 34.5001 70.9258 34.5248L70.9477 34.5549L70.9943 34.6233L71.0162 34.6562L71.0627 34.7219L71.0873 34.7575L71.1339 34.8177L71.1612 34.8533L71.2078 34.9135L71.2379 34.9491L71.2872 35.0093L71.3145 35.0421L71.3638 35.0996L71.3966 35.1379L71.4459 35.1927L71.4788 35.2255L71.528 35.2803L71.5636 35.3131C71.5795 35.3327 71.5969 35.351 71.6156 35.3679L71.643 35.3952L71.7005 35.4527L71.7224 35.4719L71.9359 35.6607L71.9715 35.6936C71.9909 35.7067 72.0092 35.7213 72.0262 35.7374L72.0673 35.7702L72.1248 35.814L72.1631 35.8441L72.2206 35.8852L72.2644 35.918L72.3164 35.9536L72.3656 35.9892L72.4176 36.0221L72.4697 36.0576L72.5217 36.0905L72.5709 36.1206L72.6257 36.1535L72.6777 36.1863L72.7324 36.2164L72.7844 36.2465L72.8392 36.2766C72.8584 36.2883 72.8785 36.2984 72.8994 36.3067L72.9487 36.3341L73.0089 36.3642L73.0609 36.3888L73.1238 36.419L73.1731 36.4409L73.2415 36.471L73.2853 36.4901L73.3784 36.5285H73.4003H73.4195L73.518 36.564L73.5591 36.5805L73.6384 36.6078L73.6822 36.6215L73.7534 36.6462L73.8109 36.6626L73.8766 36.6817L73.9286 36.6982L73.9998 36.7146L74.049 36.7283L74.1229 36.7474H74.1777L74.2461 36.7638H74.3009L74.372 36.7775H74.4268L74.4979 36.7912H74.5554H74.6266H74.6813H74.7525H74.8127H74.8894H74.9386H75.018H75.0728H75.1494H75.5846H75.6558H75.6722H75.7434H75.8036H75.831H75.8857H75.9103H75.9733H76.0938H76.143H76.1649H76.2306H76.247H76.31H76.3346H76.3784H76.4058H76.4605H76.4934H76.5399H76.5782H76.5919H76.633H76.6795H76.7178H76.737L76.8054 36.7721H76.8246H76.8629L76.9094 36.7584L76.956 36.7447L77.0436 36.7173C78.1142 36.3668 79.0447 35.6829 79.6987 34.7657C79.8006 34.6417 79.8679 34.493 79.8937 34.3347C79.9195 34.1763 79.9029 34.014 79.8456 33.8641C79.7883 33.7142 79.6924 33.5822 79.5676 33.4814C79.4427 33.3806 79.2934 33.3147 79.1348 33.2903C79.0892 33.2876 79.0435 33.2876 78.998 33.2903C78.898 33.2901 78.7989 33.2725 78.7051 33.2383C78.5354 33.1804 78.3867 33.0736 78.2776 32.9314C78.1685 32.7892 78.1039 32.6179 78.0919 32.439V19.9271V19.7711C78.0909 17.8775 77.5085 16.0299 76.4235 14.4779C75.3385 12.926 73.8031 11.7447 72.025 11.0935C70.2468 10.4424 68.3117 10.3529 66.481 10.8372C64.6504 11.3214 63.0126 12.356 61.7889 13.8012L61.767 13.7464L61.7232 13.6479C61.6576 13.5055 61.5864 13.3741 61.507 13.2263L61.4577 13.1415L61.4441 13.1196L61.4003 13.0457L61.3811 13.0156C61.3647 12.9909 61.3482 12.9663 61.3346 12.9417L61.3127 12.9116L61.2661 12.8431L61.2442 12.8103L61.1977 12.7473L61.1731 12.7117C61.1566 12.6898 61.1402 12.6707 61.1265 12.6488L61.0992 12.6132C61.0821 12.5943 61.0666 12.5742 61.0526 12.553L61.0225 12.5174L60.9732 12.4599L60.9459 12.4243L60.8966 12.3668L60.8638 12.3313L60.8145 12.2765L60.7816 12.2409L60.7324 12.1889L60.6968 12.1533L60.6448 12.0986L60.6174 12.074L60.5599 12.0165L60.5353 11.9946C60.4669 11.9289 60.3957 11.8659 60.3245 11.8057L60.2889 11.7756L60.2342 11.7291L60.1931 11.699L60.1357 11.6552L60.0973 11.6223L60.0398 11.584C60.0264 11.5716 60.0117 11.5606 59.9961 11.5511L59.944 11.5128L59.8948 11.48L59.8428 11.4444L59.7908 11.4116L59.7388 11.376L59.6895 11.3459L59.6347 11.313L59.5827 11.2829L59.528 11.2501L59.476 11.2199L59.4212 11.1898L59.361 11.1597L59.3117 11.1351L59.2515 11.105L59.1995 11.0776L59.1366 11.0502L59.0873 11.0256L59.0189 10.9955L58.9751 10.9763L58.882 10.938H58.8601H58.8409L58.7424 10.8997L58.7013 10.8833L58.622 10.8559L58.5782 10.8422L58.507 10.8176L58.4495 10.8011L58.3838 10.782H58.3318L58.2606 10.7628H58.2114L58.1375 10.7464L58.0827 10.7327H58.0143L57.9595 10.719H57.8884H57.8336H57.7625H57.705H57.6338H57.5791H57.5079H57.4477H57.371H57.3218H57.2424H56.5882H56.517H56.4568H56.4294H56.3747H56.35H56.2871H56.2652H56.2159H56.194H56.1283H56.1119H56.049H56.0243H55.9805H55.9532H55.8984H55.8656H55.819H55.7807H55.767H55.726H55.6794H55.6411H55.6219L55.5535 10.7355H55.5344H55.496L55.4495 10.7491H55.403L55.3154 10.7765C54.2441 11.1257 53.3127 11.8087 52.6575 12.7254C52.5481 12.8584 52.4787 13.0196 52.4574 13.1905C52.4361 13.3614 52.4637 13.5348 52.5372 13.6905C52.6106 13.8463 52.7267 13.9779 52.8721 14.0702C53.0175 14.1625 53.1861 14.2116 53.3582 14.2117H53.4239C53.6424 14.2278 53.8478 14.3222 54.0022 14.4776C54.1566 14.633 54.2497 14.839 54.2643 15.0576V32.9372V32.9591C54.2643 34.0139 54.6833 35.0255 55.4292 35.7714C56.175 36.5173 57.1867 36.9363 58.2415 36.9363C59.2963 36.9363 60.3079 36.5173 61.0538 35.7714C61.7997 35.0255 62.2187 34.0139 62.2187 32.9591C62.216 32.8605 62.2105 32.762 62.205 32.6662L62.1941 32.6607ZM95.6212 19.4974V19.5138L87.5409 22.7328C87.7245 21.1291 88.4921 19.6492 89.6972 18.5754C90.9023 17.5015 92.4605 16.9089 94.0747 16.9107C94.4983 16.9098 94.921 16.951 95.3365 17.0338C95.6169 17.0748 95.8757 17.2076 96.0725 17.4113C96.2694 17.6151 96.3931 17.8783 96.4244 18.1599C96.4557 18.4415 96.3928 18.7255 96.2455 18.9675C96.0981 19.2095 95.8748 19.3958 95.6103 19.4974H95.6212ZM91.5865 29.4308C92.3447 29.8441 93.3 30.074 95.2271 30.0713C96.7107 30.0617 98.1669 29.6704 99.4555 28.935C100.744 28.1996 101.822 27.1449 102.585 25.8724C102.702 25.6753 102.763 25.4755 102.858 25.3085C102.943 25.1706 103.063 25.0581 103.206 24.983C103.35 24.9078 103.511 24.8727 103.672 24.8814C103.834 24.8901 103.99 24.9422 104.124 25.0324C104.258 25.1225 104.366 25.2472 104.435 25.3934C104.476 25.4837 104.621 26.053 104.646 26.1625C104.891 27.3387 104.852 28.5563 104.531 29.7142C104.211 30.8721 103.619 31.9368 102.804 32.8195C100.548 35.196 97.4898 36.6489 94.2227 36.8958C90.9557 37.1426 87.7136 36.1658 85.1266 34.1553L85.0856 34.1224L85.0117 34.0622L84.9405 34.0075L84.8775 33.9555L84.8009 33.8925L84.7407 33.8432L84.664 33.7775L84.6093 33.7283C84.5816 33.7069 84.5551 33.6841 84.5299 33.6598L84.4779 33.6133L84.3958 33.5421L84.3493 33.4983L84.2644 33.4217L84.2206 33.3834L84.1358 33.3012L84.1029 33.2711C83.9086 33.0823 83.717 32.8879 83.5308 32.6908C83.498 32.6553 83.4651 32.6169 83.4295 32.5814L83.4131 32.5622L83.3146 32.45V32.4363C81.1677 29.9831 80.0042 26.8224 80.048 23.5627C80.0919 20.3031 81.34 17.1748 83.5521 14.7803C85.7642 12.3857 88.7839 10.8941 92.0299 10.5925C95.2759 10.291 98.5187 11.2008 101.134 13.147L101.115 13.1716C101.88 13.7009 102.517 14.3962 102.976 15.2057C103.435 16.0153 103.706 16.9181 103.767 17.8468C103.829 18.7755 103.68 19.7061 103.332 20.5692C102.983 21.4323 102.444 22.2056 101.755 22.8313C100.934 23.584 100.521 23.751 99.5409 24.1424L89.7307 28.0622C90.2963 28.5861 90.9188 29.0452 91.5865 29.4308ZM108.136 14.8221V31.6808C108.138 31.9762 108.163 32.2709 108.213 32.5622C108.213 32.595 108.213 32.6279 108.232 32.6607V32.6881C108.232 32.7182 108.232 32.7483 108.251 32.7784V32.8113C108.251 32.8387 108.265 32.8688 108.273 32.8961V32.9345C108.273 32.9618 108.286 32.9892 108.295 33.0166V33.0549C108.295 33.0823 108.295 33.1096 108.317 33.1397V33.1726L108.341 33.2574V33.293C108.341 33.3204 108.358 33.345 108.369 33.3724V33.4107L108.399 33.4929V33.5202C108.399 33.5503 108.421 33.5777 108.434 33.6078V33.6297C108.445 33.6614 108.458 33.6925 108.473 33.7228V33.7365L108.516 33.835C108.585 33.9801 108.656 34.1087 108.733 34.2565L108.779 34.3387L108.796 34.3633L108.839 34.4345L108.859 34.4673C108.875 34.4892 108.889 34.5138 108.905 34.5385L108.927 34.5686L108.971 34.637L108.995 34.6699L109.042 34.7356L109.067 34.7711L109.113 34.8314L109.14 34.8669L109.187 34.9272L109.217 34.9628L109.266 35.023L109.294 35.0558L109.343 35.1133L109.376 35.1516L109.425 35.2064L109.458 35.2392L109.507 35.294L109.543 35.3268C109.559 35.3463 109.576 35.3647 109.595 35.3815L109.622 35.4089L109.68 35.4664L109.702 35.4856L109.915 35.6744L109.951 35.7073C109.97 35.7204 109.988 35.735 110.005 35.7511L110.046 35.7839L110.104 35.8277L110.142 35.8578L110.197 35.8989L110.244 35.9317L110.296 35.9673L110.345 36.0029L110.397 36.0358L110.446 36.0713L110.501 36.1042L110.55 36.1343L110.605 36.1671L110.657 36.2L110.712 36.2301L110.764 36.2602L110.818 36.2903L110.879 36.3204L110.928 36.3478L110.988 36.3779L111.04 36.4025L111.1 36.4326L111.152 36.4545L111.221 36.4847L111.265 36.5038L111.358 36.5421H111.379H111.399L111.497 36.5777L111.538 36.5941L111.615 36.6215L111.661 36.6352L111.733 36.6598L111.787 36.6763L111.853 36.6954L111.908 36.7119L111.979 36.7283L112.028 36.742L112.102 36.7611H112.154L112.223 36.7775H112.28L112.351 36.7912H112.406L112.474 36.8049H112.535H112.603H112.661H112.732H112.792H112.866H112.918H112.997H113.052H113.129H113.564H113.635H113.706H113.766H113.794H113.848H113.87H113.933H113.958H114.007H114.141H114.204H114.223H114.284H114.308H114.355H114.382H114.434H114.47H114.516H114.555H114.596H114.642H114.681H114.7L114.768 36.7858H114.787H114.826L114.872 36.7721L114.916 36.7584L115.001 36.731C115.98 36.41 116.844 35.8096 117.486 35.0038C117.588 34.8822 117.68 34.7521 117.76 34.6151C117.822 34.4914 117.856 34.3551 117.858 34.2165C117.86 34.0779 117.831 33.9407 117.772 33.8151C117.713 33.6896 117.626 33.5791 117.519 33.492C117.411 33.4049 117.285 33.3434 117.15 33.3122C117.085 33.2989 117.019 33.2925 116.953 33.293C116.832 33.2935 116.713 33.2693 116.602 33.2219C116.448 33.155 116.315 33.0467 116.218 32.9091C116.122 32.7714 116.065 32.6096 116.055 32.4418V22.7246C116.055 22.6178 116.055 22.5111 116.055 22.4043C116.055 22.2975 116.055 22.2072 116.055 22.1114V13.678C116.2 13.678 116.348 13.678 116.495 13.678C117.867 13.6788 119.214 13.321 120.405 12.6401C121.595 11.9593 122.587 10.979 123.281 9.79658C123.443 9.52285 123.692 9.13964 123.692 8.81939C123.692 8.57837 123.596 8.34722 123.425 8.17679C123.255 8.00637 123.024 7.91062 122.783 7.91062C122.625 7.91015 122.47 7.95172 122.334 8.03106C121.362 8.5044 120.303 8.77294 119.223 8.82003C118.143 8.86712 117.064 8.69174 116.055 8.30478V5.26371C116.053 4.96833 116.027 4.67358 115.978 4.38232V4.36863C115.978 4.33579 115.978 4.30294 115.959 4.27009V4.24272C115.959 4.21261 115.959 4.1825 115.94 4.14965V4.11955C115.94 4.09217 115.94 4.06206 115.918 4.03469V3.99637C115.918 3.969 115.918 3.94163 115.896 3.91425V3.87593C115.896 3.84856 115.896 3.81845 115.874 3.79107V3.75823C115.867 3.72944 115.857 3.70111 115.847 3.67338V3.63779C115.847 3.61042 115.83 3.58578 115.819 3.55841V3.52009C115.819 3.49272 115.797 3.46535 115.789 3.43797V3.4106C115.779 3.38075 115.767 3.35151 115.754 3.32301V3.29838L115.715 3.20805V3.19162C115.715 3.16151 115.685 3.12866 115.671 3.09582C115.603 2.95074 115.532 2.82209 115.455 2.67428L115.409 2.59217L115.392 2.56753L115.348 2.49363L115.329 2.46352C115.313 2.43888 115.296 2.41698 115.283 2.39235L115.261 2.36224C115.247 2.33839 115.231 2.31552 115.214 2.29381L115.192 2.26096L115.146 2.19526L115.121 2.15968L115.075 2.09946L115.047 2.06388L115.001 2.00366L114.971 1.96534L114.921 1.90786L114.894 1.87501L114.845 1.81753L114.812 1.77921L114.763 1.72446L114.73 1.68888L114.681 1.63687L114.645 1.60128L114.593 1.54928L114.566 1.52191L114.508 1.46442L114.486 1.44526L114.273 1.25366C114.26 1.24513 114.248 1.23502 114.237 1.22355L114.182 1.17975L114.141 1.14691L114.084 1.10311L114.046 1.073L113.988 1.03194L113.944 0.999092L113.892 0.960771L113.843 0.927926L113.791 0.895076L113.742 0.859495L113.687 0.826645L113.638 0.793799L113.583 0.760954L113.531 0.730844L113.476 0.697999L113.424 0.670625L113.369 0.640515C113.35 0.628857 113.33 0.618787 113.309 0.610405L113.26 0.583031L113.2 0.552921L113.148 0.528287L113.085 0.498177L113.036 0.476279L112.967 0.446169L112.923 0.42701L112.83 0.388689H112.808H112.789L112.691 0.350368L112.65 0.336681L112.573 0.309307L112.526 0.292884L112.455 0.270986L112.398 0.254563L112.332 0.235405L112.28 0.218982L112.209 0.199819H112.16L112.086 0.180656H112.034L111.965 0.164234H111.908H111.837H111.782H111.713H111.653H111.582H111.527H111.456H111.396H111.319H111.27H111.191H110.539H110.465H110.405H110.309H110.254H110.233H110.167H110.145H110.096H110.074H110.011H109.992H109.929H109.907H109.86H109.833H109.778H109.745H109.699H109.661H109.647H109.606H109.559H109.521H109.502L109.433 0.183396H109.414H109.376L109.329 0.197083H109.283L109.198 0.224453C108.161 0.564944 107.255 1.21685 106.603 2.09125L106.496 2.2418C106.403 2.37831 106.349 2.5376 106.34 2.70254C106.331 2.86748 106.366 3.03184 106.444 3.17794C106.521 3.32403 106.636 3.44634 106.778 3.53171C106.919 3.61707 107.081 3.66226 107.246 3.66242C107.3 3.66111 107.353 3.66663 107.405 3.67885C107.605 3.71405 107.788 3.81551 107.923 3.96692C108.059 4.11833 108.139 4.31091 108.152 4.51371V6.49273C106.859 6.23401 105.522 6.30338 104.262 6.69451C103.003 7.08563 101.862 7.78605 100.942 8.73179C100.845 8.81985 100.767 8.92709 100.714 9.04675C100.66 9.16641 100.632 9.2959 100.63 9.42705C100.631 9.6676 100.727 9.89804 100.897 10.0679C101.068 10.2377 101.299 10.3331 101.539 10.3331C101.601 10.3332 101.662 10.3277 101.723 10.3167C102.106 10.2592 102.493 10.2309 102.88 10.2318C104.829 10.2285 106.708 10.9517 108.152 12.2601V14.1762C108.152 14.2829 108.139 14.3897 108.139 14.4964C108.139 14.6032 108.119 14.7263 108.136 14.8221ZM131.933 36.9363C134.47 36.9361 136.953 36.2049 139.084 34.8303C141.216 33.4556 142.906 31.4958 143.953 29.1853C144.999 26.8749 145.358 24.3117 144.986 21.8027C144.613 19.2938 143.526 16.9453 141.853 15.0384C140.332 17.384 137.948 19.0361 135.218 19.6369C136.187 20.4176 136.848 21.5159 137.085 22.7374C137.322 23.9589 137.119 25.2247 136.512 26.3108C135.905 27.3969 134.933 28.2331 133.768 28.6714C132.604 29.1097 131.322 29.1218 130.149 28.7056C128.977 28.2894 127.989 27.4716 127.362 26.3972C126.735 25.3227 126.508 24.0609 126.721 22.8352C126.935 21.6095 127.575 20.4989 128.529 19.7001C129.483 18.9013 130.689 18.4659 131.933 18.4709C132.24 18.4709 132.538 18.5065 132.848 18.5092H133.198H133.357H133.398H133.592H133.636L133.795 18.4955H133.844L134.036 18.4764H134.06L134.23 18.4517H134.282L134.438 18.4271H134.476L134.66 18.3942H134.709L134.86 18.3641H134.903L135.089 18.3203H135.117L135.276 18.282L135.328 18.2656L135.489 18.2218H135.511L135.692 18.1671L135.735 18.1534L135.878 18.1068L135.924 18.0931L136.097 18.0302L136.135 18.0165L136.277 17.9645L136.327 17.9453L136.491 17.8769L136.661 17.803L136.707 17.7838L136.844 17.7209L136.882 17.7017L137.047 17.6223L137.085 17.6032L137.216 17.5348L137.263 17.5129L137.422 17.4253L137.58 17.3349L137.621 17.3103L137.753 17.2309L137.786 17.2118L137.955 17.0338L137.991 17.0092L138.117 16.9271L138.155 16.9025L138.308 16.7957L138.454 16.6889L138.486 16.6643L138.623 16.5603H138.637L138.785 16.4426L138.812 16.4207L138.935 16.3167L138.963 16.292L139.105 16.1661C139.152 16.1278 139.195 16.0868 139.239 16.0457L139.266 16.0183C139.36 15.9307 139.45 15.8431 139.54 15.7446L139.562 15.7227L139.68 15.5995L139.696 15.5804C139.743 15.5338 139.787 15.4846 139.828 15.438C139.869 15.3942 139.907 15.3477 139.948 15.3012L139.967 15.2793C140.049 15.1807 140.131 15.0795 140.211 14.9782L140.227 14.959L140.339 14.8112L140.457 14.647C140.496 14.595 140.534 14.5402 140.569 14.4855C140.646 14.3732 140.72 14.261 140.791 14.146L140.832 14.0804C141.508 12.9548 141.936 11.6976 142.086 10.3933C142.1 10.3295 142.107 10.2643 142.108 10.199C142.108 9.95793 142.012 9.72678 141.842 9.55636C141.671 9.38593 141.44 9.29019 141.199 9.29019C141 9.29231 140.807 9.36069 140.652 9.48453C138.736 10.6679 136.455 11.1135 134.235 10.7382C132.433 10.4187 130.584 10.4777 128.805 10.9115C127.027 11.3452 125.358 12.1442 123.905 13.2578C122.452 14.3713 121.247 15.7749 120.366 17.3794C119.484 18.9839 118.947 20.7542 118.787 22.5778C118.626 24.4013 118.847 26.2382 119.436 27.9718C120.024 29.7053 120.966 31.2975 122.203 32.6471C123.44 33.9967 124.944 35.0743 126.619 35.8113C128.295 36.5483 130.106 36.9286 131.936 36.9281L131.933 36.9363ZM20.6975 13.0128L15.1628 24.0576L9.86899 13.4754C9.73437 13.2115 9.57876 12.9589 9.40366 12.72L9.34344 12.6406L9.32702 12.6187L9.26954 12.5448L9.25038 12.5201L9.19289 12.4517L9.16826 12.4216L9.11077 12.3586L9.08614 12.3285L9.02592 12.2656L9.00129 12.2382L8.94107 12.1752L8.9137 12.1479L8.85621 12.0876L8.8261 12.0603L8.76315 12.0001L8.74125 11.9809L8.67008 11.9179L8.65366 11.9015L8.57701 11.8358L8.4949 11.7701C8.37176 11.6726 8.24387 11.5813 8.11168 11.4964L8.02957 11.4444L8.00767 11.428L7.93377 11.3842L7.90366 11.365L7.82975 11.3212L7.7969 11.3021L7.72573 11.2637L7.69015 11.2446L7.61898 11.2063L7.58066 11.1844L7.51223 11.1515L7.47117 11.1324L7.40274 11.0995L7.35894 11.0803L7.29051 11.0502L7.24946 11.0311L7.18102 11.0037L7.13449 10.9845L7.06606 10.9572L7.02226 10.9407L6.95383 10.9161L6.9073 10.8997L6.83613 10.8751H6.80055L6.72117 10.8504H6.69106L6.41733 10.7765H6.3708H6.30237H6.2531H6.18193H6.13266H6.06423H6.00949H5.94653H5.88631H5.82609H5.76587H5.70291H5.64269H5.57974H5.51952H4.83794H4.73941H4.65181H4.5478H4.504H4.42189H4.37535H4.29871H4.24123L4.17553 10.7902H4.12079L4.04962 10.8066H3.99761L3.92645 10.823H3.8717L3.80327 10.8395L3.74852 10.8559L3.68009 10.8751H3.62535L3.55692 10.8969L3.50217 10.9161L3.43374 10.938L3.379 10.9572L3.3133 10.9818L3.25856 11.001L3.18739 11.0283L3.13812 11.0475L3.06421 11.0803L3.01495 11.1022L2.94652 11.1324L2.89724 11.1542L2.77954 11.2117L2.71658 11.2446H2.69743L2.63721 11.2774H2.62352L2.56056 11.313L2.49761 11.3486L2.43465 11.3842L2.38265 11.4143H2.36075L2.31421 11.4444H2.29232L2.24031 11.48H2.22114L2.18009 11.5074L2.16093 11.521L2.10892 11.5594L2.05691 11.5977H2.03775L1.99943 11.6251L1.97753 11.6415L1.93374 11.6743L1.90636 11.699L1.86804 11.7291L1.83793 11.7537L1.80509 11.7811L1.7695 11.8139L1.73939 11.8386L1.68465 11.8851L1.65454 11.9125L1.61895 11.9453L1.58611 11.9782C1.56421 12.0001 1.54231 12.0192 1.52315 12.0411C0.759991 12.7947 0.244415 13.7628 0.0450406 14.8167C0.0250909 14.9171 0.0104708 15.0185 0.00124377 15.1205C-0.00701678 15.2804 0.025976 15.4397 0.0970488 15.5831C0.15026 15.6898 0.224017 15.785 0.314095 15.8632C0.404173 15.9413 0.508796 16.0009 0.621963 16.0386C0.73513 16.0762 0.854618 16.0911 0.973566 16.0825C1.09251 16.0739 1.20858 16.0418 1.31512 15.9882C1.39506 15.9475 1.481 15.9197 1.56968 15.9061C1.73028 15.8796 1.89504 15.8963 2.04706 15.9545C2.19907 16.0127 2.33284 16.1103 2.43465 16.2373C2.46977 16.2829 2.50091 16.3314 2.52772 16.3824V16.3961L2.57699 16.4946L3.5186 18.3778L10.8736 33.085C11.1637 33.6653 11.4675 34.4044 11.7878 34.9436C12.1419 35.5363 12.6443 36.0267 13.2455 36.3664C13.8466 36.7061 14.5259 36.8834 15.2164 36.8809C15.9069 36.8784 16.5848 36.6962 17.1835 36.3522C17.7822 36.0082 18.281 35.5142 18.6309 34.919C18.7294 34.7492 18.8116 34.596 18.9046 34.4153L27.9183 16.3386V16.3194C28.3902 15.3757 28.4679 14.2831 28.1342 13.2821C27.8005 12.2811 27.0829 11.4537 26.1391 10.9818C25.1954 10.5099 24.1028 10.4323 23.1018 10.766C22.1009 11.0996 21.2734 11.8173 20.8015 12.761C20.7659 12.8349 20.7276 12.928 20.6893 13.0128H20.6975ZM75.6011 36.9336H75.6749H75.6011ZM56.7579 10.5575H56.684H56.7579ZM110.643 1.90735e-06H110.583H110.643ZM113.594 36.9336H113.668H113.594ZM2.64542 11.2035L2.58246 11.2391L2.64542 11.2035Z" fill="white"></path></svg>